<mxfile host="Electron" modified="2023-12-07T09:41:17.834Z" agent="Mozilla/5.0 (Windows NT 10.0; Win64; x64) AppleWebKit/537.36 (KHTML, like Gecko) draw.io/22.0.3 Chrome/114.0.5735.289 Electron/25.8.4 Safari/537.36" etag="TdrQ3sEpvXrvXwu7ZHhk" version="22.0.3" type="device">
  <diagram id="C5RBs43oDa-KdzZeNtuy" name="Page-1">
    <mxGraphModel dx="1478" dy="766" grid="1" gridSize="10" guides="1" tooltips="1" connect="1" arrows="1" fold="1" page="1" pageScale="1" pageWidth="827" pageHeight="1169" background="none" math="0" shadow="0">
      <root>
        <mxCell id="WIyWlLk6GJQsqaUBKTNV-0" />
        <mxCell id="WIyWlLk6GJQsqaUBKTNV-1" parent="WIyWlLk6GJQsqaUBKTNV-0" />
        <mxCell id="O6kwRCL_06sW0Yhjf2Mc-2" value="начало" style="ellipse;whiteSpace=wrap;html=1;strokeColor=#36393d;fillColor=#eeeeee;fontColor=#000000;" parent="WIyWlLk6GJQsqaUBKTNV-1" vertex="1">
          <mxGeometry x="-540" y="40" width="120" height="50" as="geometry" />
        </mxCell>
        <mxCell id="CJra_WSzJUt3smpGOyG3-4" value="Начало цикла 1&lt;br&gt;i &amp;gt; h" style="strokeWidth=1;html=1;shape=mxgraph.flowchart.loop_limit;whiteSpace=wrap;strokeColor=#36393d;fillColor=#eeeeee;fontColor=#000000;" parent="WIyWlLk6GJQsqaUBKTNV-1" vertex="1">
          <mxGeometry x="-540" y="420" width="120" height="70" as="geometry" />
        </mxCell>
        <mxCell id="CJra_WSzJUt3smpGOyG3-6" value="" style="rounded=0;html=1;jettySize=auto;orthogonalLoop=1;fontSize=11;endArrow=block;endFill=0;endSize=8;strokeWidth=1;shadow=0;labelBackgroundColor=none;edgeStyle=orthogonalEdgeStyle;strokeColor=#36393d;fillColor=#eeeeee;fontColor=#000000;" parent="WIyWlLk6GJQsqaUBKTNV-1" edge="1">
          <mxGeometry relative="1" as="geometry">
            <mxPoint x="-480.5" y="240" as="sourcePoint" />
            <mxPoint x="-480.23" y="270" as="targetPoint" />
          </mxGeometry>
        </mxCell>
        <mxCell id="CJra_WSzJUt3smpGOyG3-8" value="Ввод i, h, k,&lt;br&gt;array[1...N]" style="shape=parallelogram;perimeter=parallelogramPerimeter;whiteSpace=wrap;html=1;fixedSize=1;strokeColor=#36393d;fillColor=#eeeeee;fontColor=#000000;" parent="WIyWlLk6GJQsqaUBKTNV-1" vertex="1">
          <mxGeometry x="-540" y="190" width="120" height="50" as="geometry" />
        </mxCell>
        <mxCell id="CJra_WSzJUt3smpGOyG3-32" value="" style="rounded=0;html=1;jettySize=auto;orthogonalLoop=1;fontSize=11;endArrow=block;endFill=0;endSize=8;strokeWidth=1;shadow=0;labelBackgroundColor=none;edgeStyle=orthogonalEdgeStyle;strokeColor=#36393d;fillColor=#eeeeee;fontColor=#000000;" parent="WIyWlLk6GJQsqaUBKTNV-1" edge="1">
          <mxGeometry relative="1" as="geometry">
            <mxPoint x="-480.34000000000003" y="90" as="sourcePoint" />
            <mxPoint x="-480.07000000000005" y="120" as="targetPoint" />
          </mxGeometry>
        </mxCell>
        <mxCell id="CJra_WSzJUt3smpGOyG3-35" value="" style="rounded=0;html=1;jettySize=auto;orthogonalLoop=1;fontSize=11;endArrow=block;endFill=0;endSize=8;strokeWidth=1;shadow=0;labelBackgroundColor=none;edgeStyle=orthogonalEdgeStyle;strokeColor=#36393d;fillColor=#eeeeee;fontColor=#000000;" parent="WIyWlLk6GJQsqaUBKTNV-1" edge="1">
          <mxGeometry relative="1" as="geometry">
            <mxPoint x="-480.16999999999996" y="160" as="sourcePoint" />
            <mxPoint x="-479.9" y="190" as="targetPoint" />
          </mxGeometry>
        </mxCell>
        <mxCell id="Kg9K-jLbq-SvP9runcIR-1" value="" style="rounded=0;html=1;jettySize=auto;orthogonalLoop=1;fontSize=11;endArrow=block;endFill=0;endSize=8;strokeWidth=1;shadow=0;labelBackgroundColor=none;edgeStyle=orthogonalEdgeStyle;strokeColor=#36393d;fillColor=#eeeeee;fontColor=#000000;" parent="WIyWlLk6GJQsqaUBKTNV-1" edge="1">
          <mxGeometry relative="1" as="geometry">
            <mxPoint x="-480.5000000000001" y="310" as="sourcePoint" />
            <mxPoint x="-480.23000000000013" y="340" as="targetPoint" />
          </mxGeometry>
        </mxCell>
        <mxCell id="Kg9K-jLbq-SvP9runcIR-3" value="" style="rounded=0;html=1;jettySize=auto;orthogonalLoop=1;fontSize=11;endArrow=block;endFill=0;endSize=8;strokeWidth=1;shadow=0;labelBackgroundColor=none;edgeStyle=orthogonalEdgeStyle;strokeColor=#36393d;fillColor=#eeeeee;fontColor=#000000;" parent="WIyWlLk6GJQsqaUBKTNV-1" edge="1">
          <mxGeometry relative="1" as="geometry">
            <mxPoint x="-480.4500000000001" y="390" as="sourcePoint" />
            <mxPoint x="-480.1800000000001" y="420" as="targetPoint" />
          </mxGeometry>
        </mxCell>
        <mxCell id="Kg9K-jLbq-SvP9runcIR-17" value="" style="rounded=0;html=1;jettySize=auto;orthogonalLoop=1;fontSize=11;endArrow=block;endFill=0;endSize=8;strokeWidth=1;shadow=0;labelBackgroundColor=none;edgeStyle=orthogonalEdgeStyle;strokeColor=#36393d;fillColor=#eeeeee;fontColor=#000000;" parent="WIyWlLk6GJQsqaUBKTNV-1" edge="1">
          <mxGeometry relative="1" as="geometry">
            <mxPoint x="-480.3800000000001" y="740" as="sourcePoint" />
            <mxPoint x="-480.3800000000001" y="770" as="targetPoint" />
          </mxGeometry>
        </mxCell>
        <mxCell id="Kg9K-jLbq-SvP9runcIR-18" value="конец" style="ellipse;whiteSpace=wrap;html=1;strokeColor=#36393d;fillColor=#eeeeee;fontColor=#000000;" parent="WIyWlLk6GJQsqaUBKTNV-1" vertex="1">
          <mxGeometry x="-360" y="520" width="120" height="50" as="geometry" />
        </mxCell>
        <mxCell id="SMtHybRJAJT8ehfguQuV-0" value="CONST N=30" style="rounded=0;whiteSpace=wrap;html=1;strokeColor=#36393d;fillColor=#eeeeee;fontColor=#000000;" parent="WIyWlLk6GJQsqaUBKTNV-1" vertex="1">
          <mxGeometry x="-540" y="120" width="120" height="40" as="geometry" />
        </mxCell>
        <mxCell id="SMtHybRJAJT8ehfguQuV-1" value="h:=30" style="rounded=0;whiteSpace=wrap;html=1;strokeColor=#36393d;fillColor=#eeeeee;fontColor=#000000;" parent="WIyWlLk6GJQsqaUBKTNV-1" vertex="1">
          <mxGeometry x="-540" y="270" width="120" height="40" as="geometry" />
        </mxCell>
        <mxCell id="SMtHybRJAJT8ehfguQuV-10" value="Конец цикла 1" style="strokeWidth=1;html=1;shape=mxgraph.flowchart.loop_limit;whiteSpace=wrap;strokeColor=#36393d;fillColor=#eeeeee;fontColor=#000000;direction=west;" parent="WIyWlLk6GJQsqaUBKTNV-1" vertex="1">
          <mxGeometry x="-540" y="670" width="120" height="70" as="geometry" />
        </mxCell>
        <mxCell id="SMtHybRJAJT8ehfguQuV-19" value="&lt;font style=&quot;font-size: 10px;&quot;&gt;Вывод&amp;nbsp;&lt;br&gt;&lt;font style=&quot;&quot;&gt;&#39;массив с четными числами&#39;&lt;/font&gt;&lt;/font&gt;" style="shape=parallelogram;perimeter=parallelogramPerimeter;whiteSpace=wrap;html=1;fixedSize=1;strokeColor=#36393d;fillColor=#eeeeee;fontColor=#000000;" parent="WIyWlLk6GJQsqaUBKTNV-1" vertex="1">
          <mxGeometry x="-360" y="260" width="120" height="50" as="geometry" />
        </mxCell>
        <mxCell id="SMtHybRJAJT8ehfguQuV-20" value="" style="rounded=0;html=1;jettySize=auto;orthogonalLoop=1;fontSize=11;endArrow=block;endFill=0;endSize=8;strokeWidth=1;shadow=0;labelBackgroundColor=none;edgeStyle=orthogonalEdgeStyle;strokeColor=#36393d;fillColor=#eeeeee;fontColor=#000000;" parent="WIyWlLk6GJQsqaUBKTNV-1" edge="1">
          <mxGeometry relative="1" as="geometry">
            <mxPoint x="-480.3800000000001" y="810" as="sourcePoint" />
            <mxPoint x="-480.3800000000001" y="840" as="targetPoint" />
          </mxGeometry>
        </mxCell>
        <mxCell id="2xioK6IHDwXSdCJLh5u1-1" value="&lt;font style=&quot;font-size: 10px;&quot;&gt;Вывод &lt;br&gt;&#39;исходные массивы&#39;&lt;/font&gt;" style="shape=parallelogram;perimeter=parallelogramPerimeter;whiteSpace=wrap;html=1;fixedSize=1;strokeColor=#36393d;fillColor=#eeeeee;fontColor=#000000;" parent="WIyWlLk6GJQsqaUBKTNV-1" vertex="1">
          <mxGeometry x="-540" y="340" width="120" height="50" as="geometry" />
        </mxCell>
        <mxCell id="2xioK6IHDwXSdCJLh5u1-2" value="" style="rounded=0;html=1;jettySize=auto;orthogonalLoop=1;fontSize=11;endArrow=block;endFill=0;endSize=8;strokeWidth=1;shadow=0;labelBackgroundColor=none;edgeStyle=orthogonalEdgeStyle;strokeColor=#36393d;fillColor=#eeeeee;fontColor=#000000;" parent="WIyWlLk6GJQsqaUBKTNV-1" edge="1">
          <mxGeometry relative="1" as="geometry">
            <mxPoint x="-480.38000000000017" y="640" as="sourcePoint" />
            <mxPoint x="-480.1100000000002" y="670" as="targetPoint" />
          </mxGeometry>
        </mxCell>
        <mxCell id="2xioK6IHDwXSdCJLh5u1-4" value="" style="rounded=0;html=1;jettySize=auto;orthogonalLoop=1;fontSize=11;endArrow=block;endFill=0;endSize=8;strokeWidth=1;shadow=0;labelBackgroundColor=none;edgeStyle=orthogonalEdgeStyle;strokeColor=#36393d;fillColor=#eeeeee;fontColor=#000000;" parent="WIyWlLk6GJQsqaUBKTNV-1" edge="1">
          <mxGeometry relative="1" as="geometry">
            <mxPoint x="-480.2900000000001" y="560" as="sourcePoint" />
            <mxPoint x="-480.0200000000001" y="590" as="targetPoint" />
          </mxGeometry>
        </mxCell>
        <mxCell id="2xioK6IHDwXSdCJLh5u1-5" value="" style="rounded=0;html=1;jettySize=auto;orthogonalLoop=1;fontSize=11;endArrow=block;endFill=0;endSize=8;strokeWidth=1;shadow=0;labelBackgroundColor=none;edgeStyle=orthogonalEdgeStyle;strokeColor=#36393d;fillColor=#eeeeee;fontColor=#000000;" parent="WIyWlLk6GJQsqaUBKTNV-1" edge="1">
          <mxGeometry relative="1" as="geometry">
            <mxPoint x="-480.2900000000002" y="490" as="sourcePoint" />
            <mxPoint x="-480.0200000000002" y="520" as="targetPoint" />
          </mxGeometry>
        </mxCell>
        <mxCell id="2xioK6IHDwXSdCJLh5u1-9" value="" style="rounded=0;html=1;jettySize=auto;orthogonalLoop=1;fontSize=11;endArrow=block;endFill=0;endSize=8;strokeWidth=1;shadow=0;labelBackgroundColor=none;edgeStyle=orthogonalEdgeStyle;strokeColor=#36393d;fillColor=#eeeeee;fontColor=#000000;" parent="WIyWlLk6GJQsqaUBKTNV-1" edge="1">
          <mxGeometry relative="1" as="geometry">
            <mxPoint x="-300.34000000000003" y="230" as="sourcePoint" />
            <mxPoint x="-300.07000000000005" y="260" as="targetPoint" />
          </mxGeometry>
        </mxCell>
        <mxCell id="2xioK6IHDwXSdCJLh5u1-13" value="A[i]:=random(167)-99" style="rounded=0;whiteSpace=wrap;html=1;strokeColor=#36393d;fillColor=#eeeeee;fontColor=#000000;" parent="WIyWlLk6GJQsqaUBKTNV-1" vertex="1">
          <mxGeometry x="-540" y="520" width="120" height="40" as="geometry" />
        </mxCell>
        <mxCell id="2xioK6IHDwXSdCJLh5u1-15" value="k:=0" style="rounded=0;whiteSpace=wrap;html=1;strokeColor=#36393d;fillColor=#eeeeee;fontColor=#000000;" parent="WIyWlLk6GJQsqaUBKTNV-1" vertex="1">
          <mxGeometry x="-540" y="770" width="120" height="40" as="geometry" />
        </mxCell>
        <mxCell id="BOUWuCyAhoZnOv69WV6i-0" value="Начало цикла 2&lt;br&gt;i &amp;gt; h" style="strokeWidth=1;html=1;shape=mxgraph.flowchart.loop_limit;whiteSpace=wrap;strokeColor=#36393d;fillColor=#eeeeee;fontColor=#000000;" parent="WIyWlLk6GJQsqaUBKTNV-1" vertex="1">
          <mxGeometry x="-540" y="840" width="120" height="70" as="geometry" />
        </mxCell>
        <mxCell id="BOUWuCyAhoZnOv69WV6i-1" value="&lt;font style=&quot;&quot;&gt;&lt;font style=&quot;font-size: 12px;&quot;&gt;Вывод &lt;br&gt;(A[i], &#39; &#39;)&lt;/font&gt;&lt;br&gt;&lt;/font&gt;" style="shape=parallelogram;perimeter=parallelogramPerimeter;whiteSpace=wrap;html=1;fixedSize=1;strokeColor=#36393d;fillColor=#eeeeee;fontColor=#000000;" parent="WIyWlLk6GJQsqaUBKTNV-1" vertex="1">
          <mxGeometry x="-540" y="590" width="120" height="50" as="geometry" />
        </mxCell>
        <mxCell id="BOUWuCyAhoZnOv69WV6i-3" value="" style="rounded=0;html=1;jettySize=auto;orthogonalLoop=1;fontSize=11;endArrow=block;endFill=0;endSize=8;strokeWidth=1;shadow=0;labelBackgroundColor=none;edgeStyle=orthogonalEdgeStyle;strokeColor=#36393d;fillColor=#eeeeee;fontColor=#000000;" parent="WIyWlLk6GJQsqaUBKTNV-1" edge="1">
          <mxGeometry relative="1" as="geometry">
            <mxPoint x="-480.0000000000001" y="1010" as="sourcePoint" />
            <mxPoint x="-300" y="90" as="targetPoint" />
            <Array as="points">
              <mxPoint x="-480" y="1030" />
              <mxPoint x="-410" y="1030" />
              <mxPoint x="-410" y="40" />
              <mxPoint x="-300" y="40" />
            </Array>
          </mxGeometry>
        </mxCell>
        <mxCell id="BOUWuCyAhoZnOv69WV6i-4" value="&lt;div&gt;k:=k+1&lt;/div&gt;&lt;div&gt;&lt;span style=&quot;background-color: initial;&quot;&gt;B[k]:=A[i]&lt;/span&gt;&lt;/div&gt;" style="rounded=0;whiteSpace=wrap;html=1;strokeColor=#36393d;fillColor=#eeeeee;fontColor=#000000;" parent="WIyWlLk6GJQsqaUBKTNV-1" vertex="1">
          <mxGeometry x="-360" y="90" width="120" height="40" as="geometry" />
        </mxCell>
        <mxCell id="BOUWuCyAhoZnOv69WV6i-5" value="" style="rounded=0;html=1;jettySize=auto;orthogonalLoop=1;fontSize=11;endArrow=block;endFill=0;endSize=8;strokeWidth=1;shadow=0;labelBackgroundColor=none;edgeStyle=orthogonalEdgeStyle;strokeColor=#36393d;fillColor=#eeeeee;fontColor=#000000;" parent="WIyWlLk6GJQsqaUBKTNV-1" edge="1">
          <mxGeometry relative="1" as="geometry">
            <mxPoint x="-300.55999999999995" y="130" as="sourcePoint" />
            <mxPoint x="-300.28999999999996" y="160" as="targetPoint" />
          </mxGeometry>
        </mxCell>
        <mxCell id="BOUWuCyAhoZnOv69WV6i-6" value="Конец цикла 2" style="strokeWidth=1;html=1;shape=mxgraph.flowchart.loop_limit;whiteSpace=wrap;strokeColor=#36393d;fillColor=#eeeeee;fontColor=#000000;direction=west;" parent="WIyWlLk6GJQsqaUBKTNV-1" vertex="1">
          <mxGeometry x="-360" y="160" width="120" height="70" as="geometry" />
        </mxCell>
        <mxCell id="BOUWuCyAhoZnOv69WV6i-7" value="" style="rounded=0;html=1;jettySize=auto;orthogonalLoop=1;fontSize=11;endArrow=block;endFill=0;endSize=8;strokeWidth=1;shadow=0;labelBackgroundColor=none;edgeStyle=orthogonalEdgeStyle;strokeColor=#36393d;fillColor=#eeeeee;fontColor=#000000;" parent="WIyWlLk6GJQsqaUBKTNV-1" edge="1">
          <mxGeometry relative="1" as="geometry">
            <mxPoint x="-300.38" y="310" as="sourcePoint" />
            <mxPoint x="-300.11" y="340" as="targetPoint" />
          </mxGeometry>
        </mxCell>
        <mxCell id="BOUWuCyAhoZnOv69WV6i-8" value="Начало цикла 3&lt;br&gt;i &amp;gt; k" style="strokeWidth=1;html=1;shape=mxgraph.flowchart.loop_limit;whiteSpace=wrap;strokeColor=#36393d;fillColor=#eeeeee;fontColor=#000000;" parent="WIyWlLk6GJQsqaUBKTNV-1" vertex="1">
          <mxGeometry x="-360" y="340" width="120" height="70" as="geometry" />
        </mxCell>
        <mxCell id="BOUWuCyAhoZnOv69WV6i-10" value="" style="rounded=0;html=1;jettySize=auto;orthogonalLoop=1;fontSize=11;endArrow=block;endFill=0;endSize=8;strokeWidth=1;shadow=0;labelBackgroundColor=none;edgeStyle=orthogonalEdgeStyle;strokeColor=#36393d;fillColor=#eeeeee;fontColor=#000000;" parent="WIyWlLk6GJQsqaUBKTNV-1" edge="1">
          <mxGeometry relative="1" as="geometry">
            <mxPoint x="-300.4500000000003" y="410" as="sourcePoint" />
            <mxPoint x="-300.1800000000003" y="440" as="targetPoint" />
          </mxGeometry>
        </mxCell>
        <mxCell id="YE0YYtaghOAApN1b9zoq-5" value="A[i] mod 2 = 0" style="rhombus;whiteSpace=wrap;html=1;shadow=0;fontFamily=Helvetica;fontSize=12;align=center;strokeWidth=1;spacing=6;spacingTop=-4;strokeColor=#36393d;fillColor=#eeeeee;fontColor=#000000;" parent="WIyWlLk6GJQsqaUBKTNV-1" vertex="1">
          <mxGeometry x="-540" y="940" width="120" height="70" as="geometry" />
        </mxCell>
        <mxCell id="YE0YYtaghOAApN1b9zoq-6" value="" style="rounded=0;html=1;jettySize=auto;orthogonalLoop=1;fontSize=11;endArrow=block;endFill=0;endSize=8;strokeWidth=1;shadow=0;labelBackgroundColor=none;edgeStyle=orthogonalEdgeStyle;strokeColor=#36393d;fillColor=#eeeeee;fontColor=#000000;" parent="WIyWlLk6GJQsqaUBKTNV-1" edge="1">
          <mxGeometry relative="1" as="geometry">
            <mxPoint x="-480.36000000000024" y="910" as="sourcePoint" />
            <mxPoint x="-480.09000000000026" y="940" as="targetPoint" />
          </mxGeometry>
        </mxCell>
        <mxCell id="YE0YYtaghOAApN1b9zoq-7" value="Вывод&amp;nbsp;&lt;br&gt;&amp;nbsp;(B[i], &#39; &#39;)" style="shape=parallelogram;perimeter=parallelogramPerimeter;whiteSpace=wrap;html=1;fixedSize=1;strokeColor=#36393d;fillColor=#eeeeee;fontColor=#000000;" parent="WIyWlLk6GJQsqaUBKTNV-1" vertex="1">
          <mxGeometry x="-360" y="440" width="120" height="50" as="geometry" />
        </mxCell>
        <mxCell id="YE0YYtaghOAApN1b9zoq-12" value="" style="rounded=0;html=1;jettySize=auto;orthogonalLoop=1;fontSize=11;endArrow=block;endFill=0;endSize=8;strokeWidth=1;shadow=0;labelBackgroundColor=none;edgeStyle=orthogonalEdgeStyle;strokeColor=#36393d;fillColor=#eeeeee;fontColor=#000000;" parent="WIyWlLk6GJQsqaUBKTNV-1" edge="1">
          <mxGeometry relative="1" as="geometry">
            <mxPoint x="-300.59000000000015" y="490" as="sourcePoint" />
            <mxPoint x="-300.59000000000015" y="520" as="targetPoint" />
          </mxGeometry>
        </mxCell>
      </root>
    </mxGraphModel>
  </diagram>
</mxfile>
